<?xml version="1.0" encoding="UTF-8"?>
<svg version="1.1" xmlns="http://www.w3.org/2000/svg" width="1254" height="1254">
<path d="M0 0 C413.82 0 827.64 0 1254 0 C1254 413.82 1254 827.64 1254 1254 C840.18 1254 426.36 1254 0 1254 C0 840.18 0 426.36 0 0 Z " fill="#FDFDFD" transform="translate(0,0)"/>
<path d="M0 0 C5.41205001 4.26180505 10.56483905 8.76083876 15.5625 13.5 C16.44679688 14.33144531 17.33109375 15.16289062 18.2421875 16.01953125 C49.51771232 46.27616504 68.09951633 88.19502003 82.5625 128.5 C82.84174316 129.26989258 83.12098633 130.03978516 83.40869141 130.83300781 C84.91667081 135.0194011 86.28041572 139.24007223 87.5625 143.5 C87.80887207 144.3053418 88.05524414 145.11068359 88.30908203 145.94042969 C108.45727978 212.49308288 115.77557816 283.26703618 118.5625 352.5 C118.60453552 353.53943756 118.64657104 354.57887512 118.68988037 355.64981079 C119.46715353 375.41298521 119.80682287 395.16056679 119.8125 414.9375 C119.81294186 415.65177029 119.81338371 416.36604057 119.81383896 417.10195541 C119.82143283 440.67402144 119.31416964 464.06673533 116.5625 487.5 C116.47057373 488.28405212 116.37864746 489.06810425 116.28393555 489.87591553 C114.91073701 501.4471666 113.31703559 512.98077668 111.5625 524.5 C111.39105469 525.63373047 111.21960937 526.76746094 111.04296875 527.93554688 C108.88075459 541.93720199 105.78398602 555.64902414 102.3359375 569.38574219 C101.57680256 572.44241052 100.84702345 575.50468823 100.125 578.5703125 C96.72881095 592.84243416 92.51090642 606.69083375 87.5625 620.5 C86.94930908 622.21195557 86.94930908 622.21195557 86.32373047 623.95849609 C79.95429229 641.56981273 72.80440824 658.68296676 64.5625 675.5 C63.80114746 677.05364258 63.80114746 677.05364258 63.02441406 678.63867188 C52.22549444 700.45453348 40.03186606 721.67318849 24.90332031 740.79443359 C23.58753582 742.46815363 22.3013671 744.16053717 21.0234375 745.86328125 C5.40718592 766.62019069 -12.51122933 786.78884993 -32.4375 803.5 C-33.34113281 804.29277344 -34.24476563 805.08554687 -35.17578125 805.90234375 C-44.14859253 813.73008616 -53.67732391 820.68991514 -63.4375 827.5 C-64.08477051 827.95262207 -64.73204102 828.40524414 -65.39892578 828.87158203 C-75.71474324 836.03753156 -86.46205547 842.40110368 -97.4375 848.5 C-98.25460449 848.9552002 -99.07170898 849.41040039 -99.91357422 849.87939453 C-116.75524484 859.18080767 -134.3624734 866.91374045 -152.4375 873.5 C-153.79935425 874.00515137 -153.79935425 874.00515137 -155.1887207 874.52050781 C-186.83612076 886.16424529 -219.13854323 893.45328031 -252.4375 898.5 C-253.51241699 898.66725586 -254.58733398 898.83451172 -255.69482422 899.00683594 C-283.12302132 903.21819854 -310.768827 903.82652743 -338.45898438 903.69561768 C-341.3713664 903.68470281 -344.2837032 903.68520144 -347.19610214 903.68560982 C-368.33967559 903.68499958 -389.29812224 903.23810329 -410.3125 900.75 C-411.04886688 900.66451904 -411.78523376 900.57903809 -412.54391479 900.4909668 C-439.50042054 897.34459315 -466.05115929 892.72257738 -492.1015625 885.0546875 C-495.56480194 884.03549481 -499.03479399 883.06123095 -502.5234375 882.1328125 C-528.95557753 875.02603392 -554.1572602 864.03393733 -578.4375 851.5 C-579.05157715 851.18595215 -579.6656543 850.8719043 -580.29833984 850.54833984 C-601.98833256 839.4239372 -622.67495808 826.07838791 -641.4375 810.5 C-643.06200446 809.22853328 -644.6870231 807.9577233 -646.3125 806.6875 C-651.25016709 802.74046204 -655.89215911 798.50339266 -660.515625 794.19921875 C-663.03404707 791.87270852 -665.59805183 789.62121594 -668.1875 787.375 C-679.25050937 777.43795119 -689.24237074 766.16251636 -698.4375 754.5 C-699.34049543 753.39813659 -700.24557523 752.29797922 -701.15234375 751.19921875 C-733.51685568 711.77335877 -756.10716961 665.61192578 -772.4375 617.5 C-772.85805664 616.27506836 -772.85805664 616.27506836 -773.28710938 615.02539062 C-777.88870466 601.51601583 -781.32506073 587.71207435 -784.63671875 573.83789062 C-785.33342129 570.93383052 -786.05434909 568.037215 -786.78125 565.140625 C-794.5519721 533.08984218 -797.23044155 499.68261345 -799.01994324 466.83886719 C-799.06081558 466.11892578 -799.10168793 465.39898438 -799.14379883 464.65722656 C-799.17677567 464.04381409 -799.2097525 463.43040161 -799.24372864 462.79840088 C-799.41477505 460.76954984 -799.67322487 458.74847757 -799.9447937 456.73062134 C-800.45734752 452.70413555 -800.59855492 448.70899359 -800.61450195 444.65283203 C-800.62097685 443.90782409 -800.62745174 443.16281614 -800.63412285 442.3952322 C-800.65352605 439.93276091 -800.66525473 437.47033685 -800.67578125 435.0078125 C-800.68056299 434.14718641 -800.68534473 433.28656033 -800.69027138 432.39985466 C-800.72637991 425.80824331 -800.7414504 419.21669837 -800.75 412.625 C-800.7526096 411.17290697 -800.7526096 411.17290697 -800.75527191 409.69147873 C-800.79861616 382.4276313 -800.32475755 355.27247316 -798.5625 328.0625 C-798.51880405 327.37977272 -798.47510811 326.69704544 -798.43008804 325.99362946 C-797.58362594 312.83033617 -796.62953535 299.70924086 -794.85302734 286.63598633 C-794.39939058 283.21238807 -794.1045933 279.80090958 -793.85644531 276.35766602 C-787.43601342 189.13442869 -763.84910693 85.39614542 -701.4375 20.5 C-700.94056641 19.97196777 -700.44363281 19.44393555 -699.93164062 18.89990234 C-679.98891409 -2.22818936 -656.79848645 -15.82511213 -628.4375 -22.5 C-627.7576001 -22.68022705 -627.0777002 -22.8604541 -626.37719727 -23.04614258 C-618.69628691 -24.88186788 -610.97510518 -24.83752349 -603.1262207 -24.81567383 C-600.77181975 -24.81252914 -598.41869826 -24.83598721 -596.06445312 -24.86132812 C-586.13876742 -24.90259348 -577.08731158 -23.87148571 -567.4375 -21.5 C-566.21409912 -21.19989014 -564.99069824 -20.89978027 -563.73022461 -20.59057617 C-539.83032253 -14.4893407 -520.32517418 0.09195618 -502.4375 16.5 C-501.42093529 17.4235761 -500.40399398 18.34673781 -499.38671875 19.26953125 C-490.70322608 27.16669143 -490.70322608 27.16669143 -487.0625 31 C-465.02973197 53.35363358 -435.25636265 67.97592884 -405.4375 76.5 C-403.76494141 77.02013672 -403.76494141 77.02013672 -402.05859375 77.55078125 C-398.21340733 78.68377702 -394.35009431 79.63697716 -390.4375 80.5 C-389.61765625 80.68481934 -388.7978125 80.86963867 -387.953125 81.06005859 C-332.97272418 92.78907835 -268.12307524 84.84340561 -220.24487305 54.41308594 C-204.62688962 44.17774621 -191.2851687 31.46505436 -178.22583008 18.19848633 C-170.702011 10.56783065 -163.43513343 3.39413817 -154.4375 -2.5 C-153.41785156 -3.17933594 -152.39820313 -3.85867187 -151.34765625 -4.55859375 C-139.15326211 -12.37778708 -126.58189239 -18.23093769 -112.4375 -21.5 C-111.67727539 -21.68191895 -110.91705078 -21.86383789 -110.13378906 -22.05126953 C-72.36902189 -30.8839543 -31.45295631 -23.07624067 0 0 Z " fill="#FC4D36" transform="translate(967.4375,187.5)"/>
<path d="M0 0 C2.39350943 0.05753823 4.78326574 0.08220399 7.17724609 0.09277344 C23.82678221 0.56484316 39.56606585 6.93150161 53.88427734 15.06933594 C54.90134766 15.64683594 55.91841797 16.22433594 56.96630859 16.81933594 C63.64128107 20.8523263 69.26070743 25.69150185 74.88427734 31.06933594 C75.53783203 31.648125 76.19138672 32.22691406 76.86474609 32.82324219 C91.09129453 45.93513322 100.22285379 64.21223302 106.80224609 82.12402344 C107.78694756 84.80440216 108.84930031 87.43369612 109.94677734 90.06933594 C120.51824509 116.56168885 124.22197912 146.35610268 124.25927734 174.75683594 C124.26088867 175.89419189 124.2625 177.03154785 124.26416016 178.20336914 C124.11435354 189.50461381 122.64738368 200.58013236 119.50927734 211.44433594 C119.31333984 212.17265625 119.11740234 212.90097656 118.91552734 213.65136719 C114.81957526 228.19458945 105.43870391 241.4777459 94.88427734 252.06933594 C94.23458984 252.74222656 93.58490234 253.41511719 92.91552734 254.10839844 C68.40307626 277.7723416 29.22252561 284.50093822 -3.49389648 284.33007812 C-5.91562185 284.31939154 -8.33659817 284.33002634 -10.75830078 284.34277344 C-24.6332513 284.35577047 -38.63003446 283.51124622 -52.17822266 280.31933594 C-53.27734985 280.06446411 -53.27734985 280.06446411 -54.39868164 279.80444336 C-72.32719839 275.46680607 -90.10314675 268.3268576 -104.11572266 256.06933594 C-104.83630859 255.50214844 -105.55689453 254.93496094 -106.29931641 254.35058594 C-119.7763893 243.32601331 -127.69043086 227.29589048 -133.11572266 211.06933594 C-133.44080811 210.14386963 -133.76589355 209.21840332 -134.10083008 208.26489258 C-137.6904637 196.96233919 -137.5562953 184.99755427 -137.55322266 173.25683594 C-137.55429016 172.38616486 -137.55535767 171.51549377 -137.55645752 170.61843872 C-137.49063839 133.11649488 -129.34676183 94.07336501 -111.11572266 61.06933594 C-110.59389404 60.11269043 -110.59389404 60.11269043 -110.06152344 59.13671875 C-104.74543058 49.49719476 -98.519082 41.2005217 -91.11572266 33.06933594 C-90.53435547 32.40546875 -89.95298828 31.74160156 -89.35400391 31.05761719 C-66.09627335 5.9252081 -32.66906115 -0.81010071 0 0 Z " fill="#FDFCFC" transform="translate(634.11572265625,341.9306640625)"/>
<path d="M0 0 C0.63131836 0.17160645 1.26263672 0.34321289 1.91308594 0.52001953 C14.89967445 4.15120208 26.06012507 9.73691927 34 21 C36.70818751 26.64799631 37.24675034 32.43371414 35.16015625 38.40234375 C28.99145968 50.55280669 17.01144185 56.17552749 4.5625 60.25 C-18.49997138 66.77711454 -46.47994034 66.77082051 -68 55 C-74.78822502 50.60451889 -83.07692307 44.26923079 -85 36 C-85.74817682 28.04211926 -84.48494019 22.06193808 -79.625 15.5625 C-60.88045105 -5.08906261 -25.17069207 -6.88736519 0 0 Z " fill="#FC4E37" transform="translate(652,386)"/>
<path d="M0 0 C6.5199534 4.86823187 11.77456954 10.38230237 14.38671875 18.21875 C14.87128735 23.14519748 15.00793433 25.20927469 12.38671875 29.46875 C4.55533521 37.49591813 -7.66458469 39.27014637 -18.39257812 39.57446289 C-36.33514916 39.71816353 -57.46880137 37.28041636 -71.61328125 25.21875 C-75.06830184 21.59519182 -75.92197849 18.72288831 -76.23828125 13.84375 C-75.99137912 7.77818766 -73.89963374 4.38603714 -69.61328125 0.21875 C-50.98084316 -16.94061072 -19.72305856 -13.44351974 0 0 Z " fill="#FDFBFA" transform="translate(854.61328125,375.78125)"/>
<path d="M0 0 C9.08917329 7.91637674 9.08917329 7.91637674 10.0625 14.8125 C10.2053958 20.00438085 9.04755775 23.15008878 5.703125 27.171875 C-5.16641302 38.04141302 -25.94920257 41.75197707 -40.58666992 41.87817383 C-54.151995 41.862379 -66.66474314 41.6514935 -77.625 32.5625 C-80.12612281 29.3001659 -80.46914548 25.97880984 -80.40234375 21.93359375 C-79.27683271 14.49487134 -73.73421777 8.26892639 -68.0625 3.6875 C-48.85614478 -9.56265551 -20.09983901 -15.22715076 0 0 Z " fill="#FDFBFA" transform="translate(466.0625,373.3125)"/>
<path d="M0 0 C5.29012124 4.40843437 10.18808428 9.07559794 15 14 C14.01 14.33 13.02 14.66 12 15 C7.71 10.71 3.42 6.42 -1 2 C-0.67 1.34 -0.34 0.68 0 0 Z " fill="#FC614C" transform="translate(289,962)"/>
<path d="M0 0 C-2.24497221 2.24497221 -2.96027349 2.37003419 -6 2.75 C-7.051875 2.89695313 -7.051875 2.89695313 -8.125 3.046875 C-10 3 -10 3 -12 1 C-3.96428571 -1.27678571 -3.96428571 -1.27678571 0 0 Z " fill="#FC6149" transform="translate(859,167)"/>
<path d="M0 0 C0.33 0.66 0.66 1.32 1 2 C0.00390625 3.9453125 0.00390625 3.9453125 -1.4375 6.125 C-1.91058594 6.84945313 -2.38367188 7.57390625 -2.87109375 8.3203125 C-3.24363281 8.87460937 -3.61617187 9.42890625 -4 10 C-4.66 9.34 -5.32 8.68 -6 8 C-2.25 2.25 -2.25 2.25 0 0 Z " fill="#FDEBE9" transform="translate(786,375)"/>
<path d="M0 0 C-1 3 -1 3 -4.0625 4.6875 C-5.031875 5.120625 -6.00125 5.55375 -7 6 C-7.66 5.34 -8.32 4.68 -9 4 C-2.25 0 -2.25 0 0 0 Z " fill="#FC5F48" transform="translate(717,604)"/>
<path d="M0 0 C0.33 0.66 0.66 1.32 1 2 C0.67 2.66 0.34 3.32 0 4 C-0.66 4 -1.32 4 -2 4 C-2.33 4.99 -2.66 5.98 -3 7 C-5.0625 7.6875 -5.0625 7.6875 -7 8 C-6.02133662 6.85373678 -5.04205413 5.70800212 -4.0625 4.5625 C-3.51722656 3.92441406 -2.97195313 3.28632812 -2.41015625 2.62890625 C-1.63204305 1.73008851 -0.84063472 0.84063472 0 0 Z " fill="#FEEFEB" transform="translate(960,966)"/>
<path d="M0 0 C-2.38573379 1.89213369 -4.07175348 3.02391783 -7 4 C-7.66 3.34 -8.32 2.68 -9 2 C-3.375 -1.125 -3.375 -1.125 0 0 Z " fill="#FC5E45" transform="translate(835,175)"/>
<path d="M0 0 C1.98 1.65 3.96 3.3 6 5 C5.34 5.66 4.68 6.32 4 7 C2.35 5.02 0.7 3.04 -1 1 C-0.67 0.67 -0.34 0.34 0 0 Z " fill="#FEEFEC" transform="translate(278,953)"/>
<path d="M0 0 C0.66 0.66 1.32 1.32 2 2 C-0.31 3.65 -2.62 5.3 -5 7 C-3.92643531 2.70574125 -3.4915227 2.25259529 0 0 Z " fill="#FC5A43" transform="translate(726,596)"/>
</svg>
